<svg xmlns="http://www.w3.org/2000/svg" viewBox="0 0 261 261"><linearGradient id="A" x1="5.577" y1="130.479" x2="255.923" y2="130.479" gradientUnits="userSpaceOnUse"><stop offset="0" stop-color="#4285f4"/><stop offset="0" stop-color="#40b6f1"/><stop offset="1" stop-color="#4083f1"/></linearGradient><path fill="url(#A)" d="M252.3 147.1c-1-2.2-1.8-4.7-2.4-7.4-2-9.1-.9-18.5 2.4-25.9 3.8-7 4.8-15.4 2.2-23.5s-8.4-14.3-15.6-17.8c-2.1-1.2-4.2-2.8-6.3-4.6-6.9-6.2-11.6-14.5-13.3-22.4-1-7.3-4.6-14.2-10.6-19.2-.5-.4-1-.8-1.5-1.1-6.9-5-15.3-6.7-23-5.2-2.4.3-5.1.3-7.8 0-9.3-.9-17.9-4.9-23.9-10.3C147 4 139.3.4 130.8.4S114.6 4 109.1 9.7v-.1c-1.8 1.7-3.9 3.2-6.3 4.6-8 4.7-17.4 6.6-25.4 5.7v.1c-7.8-1.4-16.1.2-23 5.2-4.9 3.6-8.4 8.2-10.4 13.4-.9 2.3-1.5 4.6-1.8 7-.5 2.4-1.3 4.9-2.4 7.4-3.8 8.5-10.2 15.5-17.2 19.5C15.5 75.9 9.7 82.1 7 90.3c-2.7 8.1-1.6 16.6 2.2 23.5h-.1c1 2.3 1.8 4.7 2.4 7.4 2 9.1.9 18.6-2.4 25.9h.1c-3.8 7-4.8 15.4-2.2 23.5s8.4 14.3 15.6 17.7c2.1 1.2 4.3 2.8 6.3 4.6 6.9 6.2 11.6 14.5 13.3 22.4.2 1.3.4 2.6.8 3.9 1.7 6.4 5.5 12.2 11.3 16.4 4.3 3.1 9.1 4.9 14 5.5 3 .4 6.1.3 9-.3 2.4-.3 5.1-.3 7.8 0 9.2.9 17.9 4.9 23.9 10.3v-.1c5.5 5.7 13.2 9.3 21.7 9.3s16.3-3.6 21.7-9.3c1.8-1.7 3.9-3.2 6.3-4.6 8-4.7 17.4-6.6 25.4-5.7 1 .2 1.9.3 2.9.4 6.9.6 14.1-1.2 20.1-5.6 5.3-3.9 9-9.2 10.9-15.1.6-1.7.9-3.5 1.2-5.2.5-2.4 1.3-4.9 2.4-7.4 3.8-8.5 10.2-15.5 17.2-19.5 7.2-3.4 12.9-9.6 15.6-17.7s1.7-16.5-2.1-23.5z"/><path fill="#fff" d="M55.2 136.4L72 114.5l43.7 37 70.4-78.9 20.1 18.5-88.9 97.3z"/></svg>