<svg width="110" height="127" viewBox="0 0 110 127" fill="none" xmlns="http://www.w3.org/2000/svg">
<ellipse opacity="0.2" cx="54.9585" cy="121.289" rx="54.9585" ry="5.44481" fill="#04111D"/>
<circle cx="54.9102" cy="35" r="35" fill="#19AEC3"/>
<circle cx="54.9102" cy="35" r="27" fill="#2BCDE4"/>
<rect x="49.9102" y="107" width="43" height="10" rx="5" transform="rotate(-90 49.9102 107)" fill="#19AEC3"/>
<path d="M63.466 39.67C63.466 41.29 62.906 42.67 61.786 43.81C60.686 44.95 59.196 45.7 57.316 46.06V47.53C57.316 48.15 57.116 48.65 56.716 49.03C56.336 49.41 55.836 49.6 55.216 49.6C54.596 49.6 54.086 49.41 53.686 49.03C53.306 48.65 53.116 48.15 53.116 47.53V46.18C50.896 45.9 48.996 45.25 47.416 44.23C47.056 44.01 46.796 43.76 46.636 43.48C46.496 43.2 46.426 42.83 46.426 42.37C46.426 41.77 46.596 41.25 46.936 40.81C47.296 40.37 47.716 40.15 48.196 40.15C48.436 40.15 48.676 40.19 48.916 40.27C49.156 40.35 49.466 40.5 49.846 40.72C50.726 41.2 51.546 41.54 52.306 41.74C53.066 41.94 53.876 42.04 54.736 42.04C55.796 42.04 56.596 41.87 57.136 41.53C57.696 41.17 57.976 40.64 57.976 39.94C57.976 39.52 57.806 39.18 57.466 38.92C57.146 38.64 56.736 38.42 56.236 38.26C55.756 38.1 55.046 37.9 54.106 37.66C52.606 37.28 51.376 36.9 50.416 36.52C49.456 36.12 48.626 35.51 47.926 34.69C47.226 33.85 46.876 32.73 46.876 31.33C46.876 29.73 47.436 28.34 48.556 27.16C49.676 25.98 51.156 25.2 52.996 24.82V23.32C52.996 22.72 53.196 22.23 53.596 21.85C53.996 21.45 54.496 21.25 55.096 21.25C55.716 21.25 56.216 21.44 56.596 21.82C56.996 22.2 57.196 22.7 57.196 23.32V24.73C58.856 24.99 60.476 25.62 62.056 26.62C62.416 26.86 62.666 27.13 62.806 27.43C62.966 27.71 63.046 28.06 63.046 28.48C63.046 29.08 62.866 29.6 62.506 30.04C62.146 30.48 61.726 30.7 61.246 30.7C61.006 30.7 60.776 30.66 60.556 30.58C60.336 30.5 60.016 30.35 59.596 30.13C59.456 30.05 59.146 29.89 58.666 29.65C58.186 29.39 57.666 29.19 57.106 29.05C56.566 28.89 55.986 28.81 55.366 28.81C54.466 28.81 53.736 29.01 53.176 29.41C52.616 29.79 52.336 30.31 52.336 30.97C52.336 31.61 52.656 32.09 53.296 32.41C53.936 32.73 54.946 33.05 56.326 33.37C57.806 33.71 59.016 34.07 59.956 34.45C60.916 34.83 61.736 35.44 62.416 36.28C63.116 37.12 63.466 38.25 63.466 39.67Z" fill="#19AEC3"/>
</svg>
