<svg xmlns="http://www.w3.org/2000/svg" xmlns:xlink="http://www.w3.org/1999/xlink" width="200" height="200"><path d="M118.683 16c-33.851.013-61.283 27.462-61.276 61.313h0v.128.1c.091 1.599 1.415 2.848 3.017 2.845h116.517c1.601.003 2.926-1.246 3.016-2.845l.005-.1v-.128h0c.007-33.852-27.427-61.301-61.279-61.313z" fill="#53cbc8"/><g fill="#e1147b"><path d="M16.837 145.77a3.73 3.73 0 1 1-1.092-2.638 3.73 3.73 0 0 1 1.092 2.639zm156.051-20.644H47.865c-1.294.002-2.492.683-3.154 1.795s-.692 2.489-.077 3.628l.062.116a3.67 3.67 0 0 0 3.232 1.924h124.9a3.67 3.67 0 0 0 3.232-1.924l.062-.116a3.68 3.68 0 0 0-3.234-5.423zM189.5 91.3H47.862a3.68 3.68 0 0 0-3.666 3.887c0 .039 0 .078.006.117.109 1.944 1.72 3.463 3.667 3.459H189.5c1.947.004 3.557-1.515 3.667-3.459 0-.039 0-.078.006-.117A3.68 3.68 0 0 0 189.5 91.3zm-53.329 84.564H72.338c-1.705.001-3.185 1.174-3.576 2.834s.412 3.37 1.938 4.13l.234.117a3.65 3.65 0 0 0 1.637.382h63.364a3.66 3.66 0 0 0 1.638-.382l.233-.117c1.525-.76 2.328-2.47 1.938-4.129s-1.869-2.833-3.573-2.835zm38.998-16.913h-63.831c-1.704.003-3.182 1.176-3.572 2.835s.411 3.367 1.935 4.129l.233.117a3.67 3.67 0 0 0 1.638.381h63.36c.568.002 1.129-.129 1.638-.381l.233-.117c1.523-.762 2.324-2.47 1.935-4.128s-1.866-2.832-3.569-2.836zm-87.038-10.625l-.108-.116c-.994-1.071-1.259-2.629-.674-3.969a3.67 3.67 0 0 1 3.368-2.204h103.6c1.461 0 2.784.865 3.368 2.204s.32 2.897-.674 3.969l-.108.116a3.7 3.7 0 0 1-2.693 1.174H90.824a3.7 3.7 0 0 1-2.693-1.174zm-61.704-6.288h49.472c1.704.003 3.182 1.176 3.572 2.835s-.411 3.367-1.935 4.129l-.233.117a3.65 3.65 0 0 1-1.637.382h-49a3.66 3.66 0 0 1-1.638-.382l-.233-.117c-1.523-.761-2.324-2.469-1.935-4.127s1.865-2.832 3.567-2.837z"/><use xlink:href="#A"/><path d="M126.183 112.952l.031-.116a3.67 3.67 0 0 0-3.549-4.622H19.049a3.67 3.67 0 0 0-3.549 4.622l.032.116a3.68 3.68 0 0 0 3.547 2.724h103.556c1.662-.004 3.115-1.12 3.548-2.724M9.457 111.944a3.73 3.73 0 0 1-3.73 3.727 3.73 3.73 0 0 1-3.728-3.73 3.73 3.73 0 0 1 3.729-3.728 3.73 3.73 0 0 1 3.729 3.731zm28.815 16.913a3.73 3.73 0 0 1-3.73 3.727 3.73 3.73 0 0 1-3.728-3.729 3.73 3.73 0 0 1 3.728-3.729 3.73 3.73 0 0 1 3.73 3.731z"/><use xlink:href="#A" x="63.476" y="67.652"/><path d="M62.746 179.596a3.73 3.73 0 0 1-3.73 3.727 3.73 3.73 0 1 1 2.638-6.365 3.73 3.73 0 0 1 1.092 2.638z"/></g><defs><path id="A" d="M38.272 95.031a3.73 3.73 0 0 1-3.73 3.727 3.73 3.73 0 1 1 2.638-6.365 3.73 3.73 0 0 1 1.092 2.638z"/></defs></svg>