<?xml version="1.0" ?><svg style="enable-background:new 0 0 24 24;" version="1.1" viewBox="0 0 24 24" xml:space="preserve" xmlns="http://www.w3.org/2000/svg" xmlns:xlink="http://www.w3.org/1999/xlink"><g id="info"/><g id="icons"><path d="M18,7h-1V6c0-2.2-1.8-4-4-4h-2C8.8,2,7,3.8,7,6v1H6c-2.2,0-4,1.8-4,4v7c0,2.2,1.8,4,4,4l12,0c2.2,0,4-1.8,4-4v-7   C22,8.8,20.2,7,18,7z M10,6c0-0.6,0.4-1,1-1h2c0.6,0,1,0.4,1,1v1h-4V6z M13,19h-2c-0.6,0-1-0.4-1-1c0-0.6,0.4-1,1-1h2   c0.6,0,1,0.4,1,1C14,18.6,13.6,19,13,19z" id="work"/></g></svg>