<?xml version="1.0" encoding="utf-8"?>
<!-- Generator: Adobe Illustrator 25.2.0, SVG Export Plug-In . SVG Version: 6.00 Build 0)  -->
<svg version="1.1" id="Layer_1" xmlns="http://www.w3.org/2000/svg" xmlns:xlink="http://www.w3.org/1999/xlink" x="0px" y="0px"
	 viewBox="0 0 290 65" style="enable-background:new 0 0 290 65;" xml:space="preserve">
<style type="text/css">
	.st0{display:none;fill:none;}
	.st1{fill:#FFFFFF;}
	.st2{fill:#0C76BF;}
	.st3{fill:#252D32;}
	.st4{fill:#79C651;}
	.st5{fill:#26C5EB;}
</style>
<rect class="st0" width="290" height="65"/>
<g>
	<rect x="4.3" y="4.1" class="st1" width="50.2" height="56.7"/>
	<g>
		<path class="st2" d="M72,46.6c-0.3,0-0.5-0.1-0.7-0.3s-0.2-0.4-0.2-0.7V19.4c0-0.3,0.1-0.5,0.2-0.7c0.2-0.2,0.4-0.3,0.7-0.3h2.1
			c0.3,0,0.5,0.1,0.7,0.3c0.2,0.2,0.3,0.4,0.3,0.7v11.1h13.9V19.4c0-0.3,0.1-0.5,0.3-0.7c0.2-0.2,0.4-0.3,0.7-0.3h2.1
			c0.3,0,0.5,0.1,0.7,0.3c0.2,0.2,0.3,0.4,0.3,0.7v26.3c0,0.3-0.1,0.5-0.3,0.7s-0.4,0.3-0.7,0.3h-2.1c-0.3,0-0.5-0.1-0.7-0.3
			s-0.3-0.4-0.3-0.7V34.1H75v11.6c0,0.3-0.1,0.5-0.3,0.7c-0.2,0.2-0.4,0.3-0.7,0.3H72z"/>
		<path class="st2" d="M101.7,46.6c-0.3,0-0.5-0.1-0.7-0.3s-0.2-0.4-0.2-0.7V19.4c0-0.3,0.1-0.5,0.2-0.7c0.2-0.2,0.4-0.3,0.7-0.3
			h16.6c0.3,0,0.5,0.1,0.7,0.3c0.2,0.2,0.2,0.4,0.2,0.7v1.5c0,0.3-0.1,0.5-0.2,0.7s-0.4,0.2-0.7,0.2h-13.7v8.8h12.8
			c0.3,0,0.5,0.1,0.7,0.3c0.2,0.2,0.2,0.4,0.2,0.7v1.5c0,0.3-0.1,0.5-0.2,0.7c-0.2,0.2-0.4,0.3-0.7,0.3h-12.8v9.1h14
			c0.3,0,0.5,0.1,0.7,0.2s0.2,0.4,0.2,0.7v1.6c0,0.3-0.1,0.5-0.2,0.7s-0.4,0.3-0.7,0.3H101.7z"/>
		<path class="st2" d="M127.2,46.6c-0.3,0-0.5-0.1-0.7-0.3s-0.2-0.4-0.2-0.7V19.4c0-0.3,0.1-0.5,0.2-0.7c0.2-0.2,0.4-0.3,0.7-0.3
			h9.8c3,0,5.4,0.7,7.2,2.1c1.8,1.4,2.7,3.5,2.7,6.3c0,2.1-0.5,3.8-1.6,5.1c-1,1.3-2.4,2.2-4.2,2.7l6.2,10.7
			c0.1,0.2,0.1,0.3,0.1,0.4c0,0.2-0.1,0.4-0.3,0.6c-0.2,0.2-0.4,0.2-0.6,0.2h-1.9c-0.5,0-0.8-0.1-1-0.4c-0.2-0.2-0.4-0.5-0.6-0.7
			l-5.8-10.2h-7v10.4c0,0.3-0.1,0.5-0.3,0.7c-0.2,0.2-0.4,0.3-0.7,0.3H127.2z M130.2,31.9h6.6c2,0,3.5-0.4,4.5-1.3
			c1-0.8,1.5-2.1,1.5-3.8c0-1.6-0.5-2.9-1.5-3.7c-1-0.9-2.5-1.3-4.5-1.3h-6.6V31.9z"/>
		<path class="st2" d="M160.4,46.6c-0.3,0-0.5-0.1-0.7-0.3c-0.2-0.2-0.3-0.4-0.3-0.7V22h-7.7c-0.3,0-0.5-0.1-0.7-0.3
			c-0.2-0.2-0.3-0.4-0.3-0.7v-1.7c0-0.3,0.1-0.5,0.3-0.7c0.2-0.2,0.4-0.3,0.7-0.3h19.4c0.3,0,0.5,0.1,0.7,0.3
			c0.2,0.2,0.3,0.4,0.3,0.7v1.7c0,0.3-0.1,0.5-0.3,0.7c-0.2,0.2-0.4,0.3-0.7,0.3h-7.7v23.7c0,0.3-0.1,0.5-0.3,0.7
			c-0.2,0.2-0.4,0.3-0.7,0.3H160.4z"/>
		<path class="st2" d="M176.7,46.6c-0.3,0-0.5-0.1-0.7-0.3c-0.2-0.2-0.2-0.4-0.2-0.7v-1.7c0-0.4,0.1-0.7,0.2-1
			c0.2-0.2,0.3-0.4,0.4-0.5l15-20.5h-14.3c-0.3,0-0.5-0.1-0.7-0.3c-0.2-0.2-0.3-0.4-0.3-0.7v-1.6c0-0.3,0.1-0.5,0.3-0.7
			c0.2-0.2,0.4-0.3,0.7-0.3h18.2c0.3,0,0.5,0.1,0.7,0.3c0.2,0.2,0.2,0.4,0.2,0.7v1.7c0,0.3,0,0.6-0.1,0.8c-0.1,0.2-0.2,0.4-0.4,0.6
			l-14.8,20.6h14.8c0.3,0,0.5,0.1,0.7,0.3c0.2,0.2,0.3,0.4,0.3,0.7v1.6c0,0.3-0.1,0.5-0.3,0.7c-0.2,0.2-0.4,0.3-0.7,0.3H176.7z"/>
		<path d="M214.6,46.6c-0.3,0-0.5-0.1-0.7-0.3s-0.2-0.4-0.2-0.7V19.4c0-0.3,0.1-0.5,0.2-0.7c0.2-0.2,0.4-0.3,0.7-0.3h1.9
			c0.3,0,0.6,0.1,0.7,0.2c0.2,0.1,0.3,0.3,0.3,0.3l13.4,20.5V19.4c0-0.3,0.1-0.5,0.2-0.7c0.2-0.2,0.4-0.3,0.7-0.3h1.9
			c0.3,0,0.5,0.1,0.7,0.3c0.2,0.2,0.3,0.4,0.3,0.7v26.3c0,0.3-0.1,0.5-0.3,0.7c-0.2,0.2-0.4,0.3-0.7,0.3h-1.9
			c-0.3,0-0.5-0.1-0.7-0.2c-0.1-0.2-0.2-0.3-0.3-0.3l-13.3-20.3v20c0,0.3-0.1,0.5-0.3,0.7s-0.4,0.3-0.7,0.3H214.6z"/>
		<path d="M243.6,46.6c-0.3,0-0.5-0.1-0.7-0.3s-0.2-0.4-0.2-0.7V19.4c0-0.3,0.1-0.5,0.2-0.7c0.2-0.2,0.4-0.3,0.7-0.3H260
			c0.3,0,0.5,0.1,0.7,0.3c0.2,0.2,0.2,0.4,0.2,0.7V21c0,0.3-0.1,0.5-0.2,0.7s-0.4,0.2-0.7,0.2h-13.5v9.4h12.6c0.3,0,0.5,0.1,0.7,0.3
			c0.2,0.2,0.2,0.4,0.2,0.7v1.6c0,0.3-0.1,0.5-0.2,0.7c-0.2,0.2-0.4,0.3-0.7,0.3h-12.6v10.9c0,0.3-0.1,0.5-0.3,0.7
			c-0.2,0.2-0.4,0.3-0.7,0.3H243.6z"/>
		<path d="M274.3,46.6c-0.3,0-0.5-0.1-0.7-0.3c-0.2-0.2-0.3-0.4-0.3-0.7V22h-7.7c-0.3,0-0.5-0.1-0.7-0.3c-0.2-0.2-0.3-0.4-0.3-0.7
			v-1.7c0-0.3,0.1-0.5,0.3-0.7c0.2-0.2,0.4-0.3,0.7-0.3H285c0.3,0,0.5,0.1,0.7,0.3c0.2,0.2,0.3,0.4,0.3,0.7v1.7
			c0,0.3-0.1,0.5-0.3,0.7c-0.2,0.2-0.4,0.3-0.7,0.3h-7.7v23.7c0,0.3-0.1,0.5-0.3,0.7c-0.2,0.2-0.4,0.3-0.7,0.3H274.3z"/>
	</g>
	<g>
		<path class="st3" d="M55.3,62.5H3.4c-0.5,0-0.8-0.4-0.8-0.8V3.3c0-0.5,0.4-0.8,0.8-0.8h51.8c0.5,0,0.8,0.4,0.8,0.8v51.4
			c0,0.5-0.4,0.8-0.8,0.8c-0.5,0-0.8-0.4-0.8-0.8V4.1H4.3v56.7h50.2v-2.5c0-0.5,0.4-0.8,0.8-0.8c0.5,0,0.8,0.4,0.8,0.8v3.3
			C56.1,62.1,55.7,62.5,55.3,62.5z"/>
	</g>
	<g>
		<path id="XMLID_1_" class="st4" d="M32,57.7c0,0,7.7,1,10.6,0.4c2.9-0.6,7.2-3.4,7.2-3.4s0.9-9.9-1.2-14.4c-2-4.5-2.2-5.2-3.4-7
			C44,31.5,41.5,31,39,31.8c-2.4,0.9-6.7,2.5-7.9,3.7c-1.2,1.2-0.9,1-0.9,1s-9.1,0.2-8.7-5c-2.1,1.8-3.5,2.5-5,5.7
			c-1.5,3.3-1.6,5.6-1.6,5.6s-1.6,0.1-2.5,0.6s-2.6,2.2-3,3.5c-0.4,1.3-0.5,4.9-0.5,5.1c0,0.2,2,1.2,3.4,1.4s5.6,0.4,5.8,0.3
			c0.2-0.1-0.5-4.5,0.8-5.4c1.3-1,0.9-0.3,0.9-0.3s0.3,0.3,0.4,0.5c0.1,0.1,3,0.7,4.7,1.4c1.7,0.7,3.5,1.5,4.3,1.7
			c0.8,0.2,2.2,0.5,2.5,0.6s2.3,3.2,0.1,5.4C31.8,57.9,32,57.7,32,57.7z"/>
		<path class="st4" d="M39.9,58.3c-3.3,0-7.7-0.5-7.9-0.6c0,0-0.1,0-0.1,0c0,0,0-0.1,0-0.3l0,0l0,0c1.2-1.2,1.1-2.6,0.8-3.6
			c-0.3-1-0.8-1.7-0.9-1.7c-0.1,0-0.2-0.1-0.4-0.1c-0.5-0.1-1.5-0.4-2.1-0.5c-1-0.3-3.4-1.3-4.3-1.7c-1-0.5-2.6-0.8-3.6-1.1
			c-0.8-0.2-1.1-0.3-1.1-0.3c-0.1-0.1-0.4-0.5-0.4-0.5l0,0l0,0c0,0,0.1-0.1,0-0.2c0,0-0.1-0.1-0.9,0.5c-0.9,0.7-0.8,3-0.7,4.4
			c0,0.7,0,1,0,1.1c-0.3,0.2-4.4-0.1-5.8-0.3C11,53.2,9.1,52.3,8.9,52c0,0,0,0,0-0.1c0,0,0-0.2,0-0.5c0.1-1.1,0.2-3.6,0.5-4.6
			c0.4-1.3,2.1-3,3-3.5c0.9-0.5,2.3-0.6,2.5-0.6c0-0.3,0.2-2.5,1.6-5.6c1.3-2.7,2.4-3.6,3.9-4.8c0.3-0.3,0.7-0.6,1.1-0.9l0.1-0.1
			l0,0.1c-0.1,1.1,0.2,2,0.9,2.7c2.1,2.2,7.1,2.2,7.7,2.2c0-0.1,0.3-0.3,1-1c1.4-1.3,6.4-3.2,7.9-3.7c2.5-0.9,5-0.3,6.2,1.5
			c0.9,1.3,1.2,2.1,2.2,4.2c0.3,0.7,0.7,1.6,1.3,2.8c2,4.4,1.2,14.3,1.2,14.4l0,0l0,0c0,0-4.3,2.8-7.2,3.4
			C41.9,58.3,41,58.3,39.9,58.3z M32,57.7L32,57.7c0.1,0,7.7,1,10.6,0.4c2.8-0.6,6.9-3.2,7.2-3.4c0-0.4,0.8-10-1.2-14.3
			c-0.5-1.2-0.9-2.1-1.3-2.8c-0.9-2.1-1.3-2.8-2.2-4.2c-1.2-1.8-3.7-2.4-6.1-1.5c-1.5,0.5-6.6,2.4-7.9,3.7c-0.7,0.6-0.9,0.8-0.9,0.9
			l0.1,0l-0.1,0.1c0,0-0.1,0-0.1,0c-0.6,0-5.6,0-7.7-2.3c-0.7-0.7-1-1.6-0.9-2.7c-0.4,0.3-0.7,0.6-1,0.8c-1.5,1.3-2.7,2.2-3.9,4.8
			c-1.5,3.2-1.6,5.5-1.6,5.6l0,0l0,0c0,0-1.6,0.1-2.5,0.6c-0.9,0.5-2.6,2.2-3,3.5c-0.3,1-0.4,3.5-0.5,4.6c0,0.3,0,0.4,0,0.5
			c0,0.2,2,1.2,3.4,1.4c1.4,0.2,5.6,0.4,5.8,0.3c0.1,0,0-0.5,0-1c-0.1-1.4-0.1-3.7,0.8-4.4c0.8-0.6,0.9-0.6,1-0.5
			c0.1,0.1,0,0.2,0,0.2c0.1,0.1,0.3,0.3,0.4,0.5c0,0,0.6,0.2,1.1,0.3c1,0.2,2.6,0.6,3.6,1.1c1,0.4,3.3,1.5,4.3,1.7
			c0.6,0.2,1.5,0.4,2.1,0.5c0.2,0,0.3,0.1,0.4,0.1c0.2,0,0.7,0.8,1,1.8c0.3,1,0.4,2.5-0.8,3.7C31.9,57.7,31.9,57.7,32,57.7
			C31.9,57.7,31.9,57.7,32,57.7L32,57.7z"/>
	</g>
	<path class="st3" d="M37.8,59.5c-1.5,0-3-0.1-4.6-0.4c-0.2,0-0.4-0.2-0.6-0.4c-0.1-0.2-0.2-0.4-0.2-0.7c0.1-0.4,0.5-0.8,0.9-0.8
		c0.1,0,0.1,0,0.2,0c1.5,0.3,3,0.4,4.4,0.4c5.6,0,8.9-2.2,10.9-3.4c0,0,0.2-0.1,0.2-0.1c0.5-3.9,0.2-15.9-5.6-22
		c-0.8-0.7-2.3-2.2-3.6-4.3c-1.3-2.2-2.1-4.5-2.3-6.9l0,0c0-0.4,0-0.9,0-1.4c0-2.3-0.1-5.4-1.3-8.1c-0.7-1.4-2.6-3.2-5.5-3.6
		c-0.3,0-0.6-0.1-0.9-0.1C27.3,7.8,26,9,26,9.1c-0.2,0.2-0.4,0.3-0.6,0.3c-0.2,0-0.5-0.1-0.7-0.3c-0.3-0.4-0.3-0.9,0-1.3
		C24.8,7.7,26.6,6,29.8,6c0.4,0,0.7,0,1.1,0.1c3.7,0.4,6.1,2.8,7,4.6l0,0c1.4,3,1.5,6.4,1.5,8.8l0,0c0,0.5,0,0.9,0,1.3
		c0.4,5.3,4.1,9,5.3,10l0.1,0c3.5,3.7,5.1,9.2,5.7,13.1c0.8,4.5,0.7,8.8,0.3,10.9l-0.1,0.4l-0.3,0.2c-0.2,0.1-0.3,0.2-0.5,0.4
		C47.7,57.1,44,59.5,37.8,59.5z"/>
	<path class="st3" d="M30.7,52.2c-0.1,0-0.2,0-0.4-0.1c-0.1,0-0.4-0.1-0.7-0.2c-0.5-0.1-1.3-0.3-2.1-0.6c-0.9-0.3-1.6-0.6-2.4-1
		c-0.5-0.2-1.1-0.5-1.7-0.7c-1.2-0.5-2.3-0.3-2.3-0.3c-0.4,0.1-0.7-0.2-0.8-0.5c-0.1-0.4,0.2-0.7,0.5-0.8c0.1,0,1.5-0.3,3,0.4
		c0.6,0.2,1.2,0.5,1.7,0.7c0.7,0.3,1.4,0.7,2.2,0.9c0.7,0.3,1.4,0.4,2,0.6c0.7,0.2,1,0.3,1.2,0.4c0.3,0.2,0.3,0.6,0.1,0.9
		C31,52.1,30.8,52.2,30.7,52.2z M30.2,52C30.2,52,30.2,52,30.2,52C30.2,52,30.2,52,30.2,52z"/>
	<path class="st3" d="M32.7,56.4c-0.2,0-0.3-0.1-0.4-0.2c0,0-1.4-1.3-2.1-1.8c-0.7-0.5-1.7-1.2-1.7-1.2c-0.3-0.2-0.4-0.6-0.2-0.9
		c0.2-0.3,0.6-0.4,0.9-0.2c0,0,1.1,0.7,1.8,1.3c0.7,0.6,2,1.8,2.1,1.9c0.3,0.2,0.3,0.7,0,0.9C33.1,56.3,32.9,56.4,32.7,56.4z"/>
	<path class="st3" d="M29.9,58.7c-0.1,0-0.2,0-0.3-0.1c-0.1,0-1.7-0.8-2.5-1.3c-0.7-0.5-1.9-1.8-2.1-1.9c-0.2-0.3-0.2-0.7,0-0.9
		c0.3-0.2,0.7-0.2,0.9,0c0.3,0.4,1.3,1.4,1.9,1.7c0.6,0.4,2.3,1.2,2.3,1.2c0.3,0.1,0.5,0.5,0.3,0.9C30.4,58.6,30.1,58.7,29.9,58.7z"
		/>
	<path class="st3" d="M26.5,58.7c-0.1,0-0.2,0-0.3-0.1c-0.9-0.4-2.6-1.6-3.1-2.1c-0.3-0.3-0.8-1-1.5-2c-0.2-0.3-0.5-0.7-0.6-0.9
		c-0.2,0-0.6,0-1,0c-0.4,0-0.7-0.2-0.7-0.6c0-0.4,0.2-0.7,0.6-0.7c1.4-0.1,1.7,0,1.8,0.1c0.2,0.1,0.3,0.3,1,1.3
		c0.4,0.6,1.1,1.6,1.3,1.8c0.5,0.4,2.1,1.6,2.8,1.9c0.3,0.1,0.5,0.5,0.3,0.9C27,58.6,26.7,58.7,26.5,58.7z M21.1,53.8
		C21.1,53.8,21.1,53.8,21.1,53.8C21.1,53.8,21.1,53.8,21.1,53.8z"/>
	<path class="st2" d="M25.9,47.2c-0.1,0-0.2,0-0.4,0c-0.9-0.2-1.4-1.1-1.2-1.9c0-0.1,0.7-3.1,2.8-6.5c2.8-4.5,6.8-7.5,11.6-8.8
		c0.9-0.2,1.8,0.3,2,1.2s-0.3,1.8-1.2,2c-9.6,2.5-12,12.7-12,12.8C27.3,46.6,26.6,47.2,25.9,47.2z"/>
	<path class="st3" d="M21.7,28.6c-0.5,0-0.9-0.4-0.9-0.9c0,0,0-0.9,0-2.2c-1.1-1.5-1.3-4.2-1.3-6.3c0-2.4,0.4-4.9,0.7-5.8
		c0.7-1.5,1.5-2.2,1.5-2.3c0.2-0.1,0.4-0.2,0.6-0.2c0.3,0,0.5,0.1,0.7,0.3c0.3,0.4,0.3,1-0.1,1.3c0,0-0.6,0.5-1,1.6
		c-0.2,0.5-0.6,2.8-0.6,5.1c0,2.7,0.4,4.7,1,5.3l0.3,0.3l0,0.4c0,1.5,0,2.5,0,2.5C22.6,28.2,22.2,28.6,21.7,28.6z"/>
	<path class="st3" d="M32.7,53.6c-0.2,0-0.4-0.1-0.6-0.3c-0.4-0.4-0.4-0.9,0-1.3c0.1-0.1,0.2-0.2,0.4-0.2c0,0,0.1,0,0.1-0.1
		c0.5-0.3,1.9-1,3.8-1.3c0.6-0.1,1.1-0.1,1.6-0.1c1.7,0,3.4,0.5,4.9,1.3c0.4,0.3,0.6,0.8,0.3,1.2c-0.2,0.3-0.5,0.4-0.8,0.4
		c-0.2,0-0.3,0-0.5-0.1c-1.2-0.7-2.6-1.1-4-1.1c-1.5,0-3,0.4-4.6,1.2C33.2,53.4,33,53.6,32.7,53.6z"/>
	<path class="st3" d="M23.2,47.2c-0.2,0-0.4-0.1-0.6-0.2c-1.7-1.4-2.9-3.4-3.4-5.8c-0.4-1.8-0.2-3.1-0.2-3.2
		c0.1-0.5,0.4-0.8,0.9-0.8c0,0,0.1,0,0.1,0c0.5,0.1,0.9,0.5,0.8,1c0,0-0.1,1.2,0.2,2.6c0.4,1.9,1.4,3.5,2.8,4.7
		c0.4,0.3,0.4,0.9,0.1,1.3C23.7,47,23.4,47.2,23.2,47.2z"/>
	<path class="st3" d="M33.8,32c-0.1,0-0.1,0-0.2,0c-0.5-0.1-0.8-0.6-0.7-1.1c0.1-0.5,0.3-1.2,0.3-2.1c0-0.9-0.2-2.5-0.5-3.9
		c0-0.2-0.1-0.5-0.1-0.8c0,0-0.1,0.1-0.2,0.1c0,0-0.8,0.5-1.7,0.9c-0.6,0.2-1.2,0.4-1.9,0.5c0.2,0.8,0.3,1.9,0.2,3
		c-0.1,0.4-0.5,0.8-0.9,0.8c-0.1,0-0.1,0-0.2,0c-0.2,0-0.4-0.2-0.6-0.4c-0.1-0.2-0.2-0.4-0.2-0.7c0.2-1.1-0.1-2.3-0.3-2.9
		c-1.2-0.4-2.2-1-2.9-1.8c-0.7-0.8-1.2-1.9-1.4-3.2l0-0.1l0-0.1c-0.1-1.5,0-3.5,0-5.3c0-0.2,0-0.5,0-0.7c0.1-2.6,1.8-5.3,5-5.5
		c0.2,0,0.4,0,0.6,0c2.7,0,3.8,0.9,4.5,1.4c0.9,0.7,1.5,1.5,1.9,2.7c0.4,1.3,0.3,4.4,0.2,4.9c0,0.2-0.1,0.7-0.1,1.3
		c-0.1,0.8-0.1,1.6-0.2,2c-0.1,0.6-0.1,2.4,0.1,3.6c0.2,1.2,0.5,3,0.5,4.3c0,1.1-0.1,1.9-0.3,2.5C34.5,31.7,34.2,32,33.8,32z
		 M27.9,23.8c0.1,0,0.3,0,0.4,0c0.6,0,1.1-0.2,1.7-0.4c0.7-0.3,1.3-0.7,1.3-0.7c0.2-0.1,0.3-0.2,0.5-0.2c0.2,0,0.4,0.1,0.6,0.2
		c0-0.9,0-1.7,0.1-2.1c0.1-0.3,0.1-1.1,0.2-1.8c0.1-0.7,0.1-1.2,0.1-1.4c0.1-0.4,0.2-3.2-0.1-4c-0.3-0.8-0.6-1.3-1.3-1.8
		c-0.6-0.5-1.3-1-3.4-1c-0.2,0-0.3,0-0.5,0c-2.5,0.1-3.2,2.5-3.2,3.7c0,0.2,0,0.5,0,0.7c0,1.8-0.1,3.6,0,5.1
		C24.6,22.2,25.8,23.4,27.9,23.8z"/>
	<path class="st3" d="M21.5,60.4c-0.3,0-0.5-0.2-0.5-0.5c0-0.1,0-0.2,0-0.3c0-0.3,0-0.7,0.1-1.2c0.2-0.7,1.5-1.9,1.9-2.3
		c0.2-0.2,0.5-0.2,0.7,0c0.2,0.2,0.2,0.5,0,0.7c-0.7,0.6-1.5,1.5-1.6,1.8c-0.1,0.4-0.1,0.6-0.1,0.9c0,0.1,0,0.2,0,0.4
		C22,60.2,21.7,60.4,21.5,60.4z"/>
	<path class="st3" d="M17.7,58.2c-0.3,0-0.5-0.2-0.6-0.5c-0.2-1.1,0.3-2.3,0.4-2.5l0.1-0.2l1.9-0.9c0.3-0.1,0.6,0,0.8,0.3
		c0.1,0.3,0,0.6-0.3,0.8l-1.5,0.7c-0.1,0.4-0.3,1.1-0.2,1.6c0.1,0.3-0.2,0.6-0.5,0.7C17.7,58.2,17.7,58.2,17.7,58.2z"/>
	<path class="st3" d="M19.2,60c-0.2,0-0.4-0.1-0.5-0.4c-0.4-0.9-0.3-1.8-0.3-2.3c0-0.1,0-0.2,0-0.2V57l0.1-0.1
		c0.2-0.3,1.3-1.6,2.8-1.6h1.5l-1.1,1c-0.3,0.3-0.7,1.6-1,2.6c-0.1,0.3-0.4,0.5-0.7,0.4c-0.1,0-0.1,0-0.2-0.1c0.1,0.3,0,0.6-0.3,0.7
		C19.3,60,19.3,60,19.2,60z M19.5,57.4C19.5,57.4,19.5,57.4,19.5,57.4c0,0.3,0,0.6,0,1c0.1-0.3,0.2-0.9,0.4-1.4
		C19.7,57.1,19.6,57.2,19.5,57.4z"/>
	<path class="st3" d="M27.8,22.1c-0.8,0-1.5-0.1-1.6-0.2c-0.5-0.1-0.8-0.6-0.7-1.1c0.1-0.4,0.5-0.7,0.9-0.7c0.1,0,0.1,0,0.2,0
		c0.2,0,0.7,0.1,1.2,0.1c0.3,0,0.6,0,0.8-0.1c0.1,0,0.2,0,0.3,0c0.4,0,0.7,0.3,0.9,0.6c0.1,0.2,0.1,0.5,0,0.7
		c-0.1,0.2-0.3,0.4-0.5,0.5C28.8,22,28.3,22.1,27.8,22.1z"/>
	<path class="st3" d="M30.2,17c-0.1,0-0.2,0-0.3,0c-0.1,0-0.3-0.1-0.5-0.1c-0.3,0-0.6,0.1-0.6,0.1c-0.1,0-0.2,0-0.3,0
		c-0.4,0-0.8-0.3-0.9-0.6c-0.1-0.5,0.1-1,0.6-1.1c0.1,0,0.5-0.2,1.1-0.2c0.4,0,0.7,0.1,1.1,0.2c0.5,0.2,0.7,0.7,0.6,1.1
		C31,16.8,30.6,17,30.2,17L30.2,17z"/>
	<path class="st3" d="M25.4,17c0,0-0.1,0-0.1,0c0,0-0.1,0-0.2,0c-0.2,0-0.3,0-0.5,0c0,0,0,0-0.1,0c-0.5,0-0.9-0.4-0.9-0.9
		c0-0.5,0.3-0.9,0.8-1c0.1,0,0.3,0,0.6,0c0.2,0,0.4,0,0.5,0c0.5,0.1,0.8,0.5,0.8,1C26.3,16.7,25.9,17,25.4,17z"/>
	<path class="st2" d="M15,43.7c-0.1,0-0.2,0-0.3,0c-0.8-0.2-1.3-0.9-1.1-1.7c1.2-6,4.2-9.7,6.4-11.7c2.5-2.3,4.8-3.1,4.9-3.1
		c0.8-0.3,1.6,0.1,1.9,0.9c0.3,0.8-0.1,1.6-0.9,1.9c0,0-1.9,0.7-4,2.6c-2.8,2.5-4.6,5.9-5.4,10C16.3,43.2,15.7,43.7,15,43.7z"/>
	<path class="st5" d="M23,38.9c-0.2,0-0.5-0.1-0.7-0.2c-0.7-0.4-1-1.3-0.6-2c0.1-0.1,1.6-3,4.6-5.1c0.7-0.5,1.6-0.3,2,0.3
		c0.5,0.7,0.3,1.6-0.3,2c-2.4,1.7-3.7,4.1-3.7,4.1C24,38.7,23.5,38.9,23,38.9z"/>
	<path class="st3" d="M31.9,58.6c-0.2,0-0.3-0.1-0.5-0.2c-2.2-2.2-4.8-4.1-4.9-4.1c-0.3-0.2-0.4-0.6-0.1-0.9
		c0.2-0.3,0.6-0.4,0.9-0.1c0.1,0.1,2.7,2,5,4.2c0.3,0.3,0.3,0.7,0,0.9C32.2,58.5,32.1,58.6,31.9,58.6z"/>
	<path class="st3" d="M15.5,54.6c-3.4,0-5.1-0.7-7.3-1.8l-0.5-0.3l0-0.6c0.2-9,4.7-9.6,4.9-9.6l0.2,1.8c0,0,0,0,0,0
		c0,0-0.8,0.1-1.6,1.1c-0.7,0.9-1.6,2.7-1.8,6.1c2,1,3.7,1.5,7.7,1.3C17.1,52,17,51.2,17,50.4c0.1-1.3,0.6-2.2,1.1-2.7
		c-0.1-0.1-0.2-0.3-0.2-0.4c-0.3-0.4-0.4-0.7-0.7-1c-0.4-0.3-0.4-0.9,0-1.3c0.3-0.4,0.9-0.4,1.3,0c0.5,0.4,0.7,0.9,1,1.4
		c0.2,0.3,0.4,0.6,0.7,1l0.6,0.8l-0.9,0.5c-1.4,0.7-1.1,2.8-0.6,4.7l0.2,1l-1.1,0.1C17.3,54.5,16.3,54.6,15.5,54.6z"/>
	<path class="st3" d="M32.5,50.4C32.5,50.4,32.5,50.4,32.5,50.4c-0.6,0-1-0.5-1-1.1c0-0.1,0.2-2.4,1.3-5.2c1.4-3.7,3.7-6.5,6.6-8.1
		c0.5-0.3,1.1-0.1,1.3,0.4c0.3,0.5,0.1,1.1-0.4,1.3c-2.5,1.4-4.4,3.8-5.7,7.1c-1,2.5-1.2,4.7-1.2,4.7C33.5,50,33,50.4,32.5,50.4z"/>
</g>
</svg>
