<svg xmlns="http://www.w3.org/2000/svg" width="200" height="200"><path d="M98.202 4a71.87 71.87 0 0 0-71.868 71.87 72.79 72.79 0 0 0 1.274 13.532l9.284-6.359c16.322-11.194 42.8-11.194 59.118 0l9.742 6.672 5.28 3.629c14.712 10.08 38.545 10.08 53.243 0l4.332-2.966c4.333-21.152-1.066-43.132-14.708-59.868S119.819 4.053 98.228 4.031z" fill="#f2b705"/><path d="M138.589 119.04c-10.828 0-21.182-2.938-28.978-8.281l-15.01-10.287c-7.186-4.94-16.836-7.66-27.147-7.66s-19.964 2.7-27.15 7.66l-9.705 6.645c-1.243.863-2.852.994-4.218.343s-2.278-1.983-2.391-3.492.591-2.962 1.845-3.809l9.7-6.645c8.581-5.887 19.909-9.123 31.915-9.123s23.332 3.236 31.913 9.123l15.01 10.287c14.861 9.095 33.564 9.095 48.425 0l5.7-3.9c1.242-.878 2.861-1.019 4.236-.369s2.293 1.991 2.402 3.508-.608 2.975-1.876 3.816l-5.7 3.9c-7.831 5.361-18.142 8.283-28.971 8.283zM67.14 149.222v-40.607a16.16 16.16 0 0 1 .108-2.558c.261-2.313 2.219-4.061 4.547-4.059 2.256.061 4.105 1.81 4.291 4.059a24.54 24.54 0 0 1 .148 4.25v80.961c-.243 3-2.123 4.981-4.655 4.927s-4.36-2.111-4.371-5.156v-26.985zm-8.539-20.437v20.179c0 3.453-1.842 5.739-4.452 5.657s-4.588-2.408-4.6-5.7V108.58c0-3.534 2.058-5.918 4.737-5.781s4.278 2.274 4.291 5.805l.024 20.181zm26.217-.027v-14.184c0-3.289 1.745-5.413 4.344-5.413s4.6 2.192 4.63 5.29q.147 14.483 0 28.952c0 3.288-1.937 5.263-4.6 5.238s-4.369-2.047-4.4-5.414v-14.483zm-52.866 2.95v-14.187c0-3.287 1.746-5.412 4.344-5.412s4.6 2.192 4.631 5.29q.133 14.483 0 28.952c0 3.288-1.951 5.263-4.6 5.237s-4.371-2.047-4.4-5.414v-14.479zm74.899-12.073h.013c2.46.001 4.453 1.995 4.453 4.455v7.714c-.001 2.459-1.994 4.452-4.453 4.453h-.013c-2.46 0-4.454-1.993-4.455-4.453v-7.714a4.46 4.46 0 0 1 4.455-4.455zm17.65 6.755h.013c2.46.001 4.453 1.995 4.453 4.455v43.267a4.45 4.45 0 0 1-4.453 4.452h-.013a4.45 4.45 0 0 1-4.452-4.452v-43.267c-.001-2.459 1.993-4.454 4.452-4.455zm17.526 1.677h.013c2.46 0 4.454 1.993 4.455 4.453v36.773c-.001 1.181-.47 2.313-1.306 3.148s-1.968 1.303-3.149 1.303h-.013a4.45 4.45 0 0 1-4.452-4.451v-36.772a4.45 4.45 0 0 1 4.452-4.454zm17.771-4.195h.013c2.459 0 4.453 1.994 4.453 4.453v15.861c-.001 2.459-1.994 4.452-4.453 4.453h-.013a4.45 4.45 0 0 1-4.452-4.453v-15.86a4.45 4.45 0 0 1 4.452-4.454z" fill="#53cbc8"/></svg>