<?xml version="1.0" encoding="utf-8"?>
<!-- Generator: Adobe Illustrator 16.0.0, SVG Export Plug-In . SVG Version: 6.00 Build 0)  -->
<!DOCTYPE svg PUBLIC "-//W3C//DTD SVG 1.1//EN" "http://www.w3.org/Graphics/SVG/1.1/DTD/svg11.dtd">
<svg version="1.1" id="Layer_1" xmlns="http://www.w3.org/2000/svg" xmlns:xlink="http://www.w3.org/1999/xlink" x="0px" y="0px"
	 width="256px" height="256px" viewBox="0 0 256 256" enable-background="new 0 0 256 256" xml:space="preserve">
<g>
	<path fill="#EDEDED" d="M194.83,0H61.169c-11.42,0-20.763,9.345-20.763,20.763v189.325c0,11.42,9.343,20.768,20.763,20.768H194.83
		c11.422,0,20.764-9.348,20.764-20.768V20.763C215.594,9.345,206.252,0,194.83,0z"/>
	<path fill="#95CEB4" d="M97.655,217.962c0.905-1.563,0.361-3.579-1.196-4.482l-18.993-10.964c-1.563-0.898-3.577-0.361-4.482,1.197
		l-21.316,36.926c-0.903,1.563-0.181,2.632,1.606,2.383l11.426-1.633c1.787-0.255,3.802,0.909,4.471,2.579l4.308,10.713
		c0.675,1.676,1.957,1.767,2.861,0.202L97.655,217.962z"/>
	<path fill="#95CEB4" d="M126.192,196.646c-3.611-2.084-4.86-6.748-2.776-10.357c2.084-3.616,0.384-6.572-3.791-6.572
		c-4.168,0-7.582-3.407-7.582-7.582c0-4.168-2.956-5.875-6.566-3.791c-3.617,2.085-8.273,0.835-10.363-2.771
		c-2.084-3.616-5.498-3.616-7.582,0c-2.083,3.605-6.748,4.855-10.357,2.771c-3.61-2.084-6.567-0.377-6.567,3.791
		c0,4.175-3.413,7.582-7.581,7.582c-4.174,0-5.881,2.956-3.797,6.572c2.084,3.609,0.84,8.273-2.775,10.357
		c-3.61,2.084-3.61,5.498,0,7.582c3.615,2.09,4.859,6.748,2.775,10.363c-2.084,3.61-0.377,6.566,3.797,6.566
		c4.168,0,7.581,3.413,7.581,7.588c0,4.163,2.952,5.875,6.567,3.785c3.609-2.085,8.274-0.835,10.357,2.775
		c2.084,3.616,5.498,3.616,7.582,0c2.084-3.61,6.747-4.86,10.363-2.775c3.61,2.09,6.566,0.384,6.566-3.785
		c0-4.175,3.414-7.588,7.582-7.588c4.174,0,5.875-2.956,3.791-6.566c-2.084-3.615-0.834-8.273,2.776-10.363
		C129.808,202.144,129.808,198.734,126.192,196.646z"/>
	<path fill="#FFFFFF" d="M109.092,200.437c0-9.81-7.955-17.765-17.77-17.765c-9.811,0-17.765,7.955-17.765,17.765
		c0,9.815,7.954,17.765,17.765,17.765C101.137,218.201,109.092,210.252,109.092,200.437z"/>
	<g>
		<g>
			<rect x="84.75" y="16.663" fill="#C6C6C6" width="86.498" height="19.631"/>
		</g>
		<g>
			<rect x="59.292" y="51.015" fill="#C6C6C6" width="137.415" height="12.269"/>
		</g>
		<g>
			<rect x="59.292" y="81.686" fill="#C6C6C6" width="137.415" height="12.269"/>
		</g>
		<g>
			<rect x="59.292" y="112.36" fill="#C6C6C6" width="137.415" height="12.267"/>
		</g>
		<g>
			<rect x="59.292" y="143.033" fill="#C6C6C6" width="137.415" height="12.267"/>
		</g>
	</g>
	<path opacity="0.15" d="M194.83,0H128v230.855h66.83c11.422,0,20.764-9.348,20.764-20.768V20.763C215.594,9.345,206.252,0,194.83,0
		z"/>
</g>
</svg>
